<svg xmlns="http://www.w3.org/2000/svg" xmlns:xlink="http://www.w3.org/1999/xlink" version="1.0" x="0px" y="0px" viewBox="0 0 100 100" enable-background="new 0 0 100 100" xml:space="preserve"><path d="M66.2870789,26.425993c-25.2789726,7.0294476-23.7919731,3.6499043-30.4158745-1.3518162  c-2.9560432-2.232048-8.2555866-5.2699718-13.5540733-6.7501068l0.0359077-0.008976  c-1.0814533-0.3379536-1.0814533-1.4869976-1.0814533-1.4869976c1.0814533-4.3258133-0.8786812-7.637764-1.8925438-10.5441704  s-4.4609938-1.2166348-4.866539,6.6914916S10.3894625,10.67733,9.4431906,7.8385158S6.8071485,7.0950165,6.8071485,7.0950165  S2.1043055,14.9403048,8.839098,20.8333797c-0.7424431,0.9803314-1.3423119,2.200695-1.7615862,3.7000694  c-0.5898356,2.1101017,0.1415181,4.8560123-0.2703633,7.1646271c-4.8665395,12.7070751,0.2703633,20.0068836,11.6256218,9.8682613  c0,0,3.24436-3.4471321,8.110899,7.7729454H87.375412C87.375412,49.339283,91.5660477,19.3965473,66.2870789,26.425993z   M37.0202484,46.427597l-3.7930069-2.7558784l-3.7930088,2.7555809l1.4489784-4.4590797l-3.7930069-2.7559433h4.6885853  l1.4489784-4.4588814l1.448452,4.4591446h4.6885834l-3.7930069,2.7559433L37.0202484,46.427597z M52.0708237,46.427597  l-3.7935371-2.7558784l-3.7924767,2.7555809l1.4489784-4.4590797l-3.7935371-2.7559433h4.6891136l1.4489784-4.4588814  l1.4479218,4.4591446h4.6891136l-3.7935333,2.7559433L52.0708237,46.427597z M67.1203461,46.427597l-3.7924805-2.7558784  l-3.7935371,2.7555809l1.4489784-4.4590797l-3.7924767-2.7559433h4.6880569l1.4489784-4.4588814l1.4489746,4.4591446h4.6880569  l-3.7924728,2.7559433L67.1203461,46.427597z M82.1709213,46.427597l-3.7930069-2.7558784l-3.7930069,2.7555809l1.4489746-4.4590797  l-3.7930069-2.7559433h4.6885834l1.4489822-4.4588814l1.4484482,4.4591446h4.6885834l-3.7930069,2.7559433L82.1709213,46.427597z"></path><path d="M94.8104019,63.1954002c-0.3162994-1.3443909-1.1194687-2.5008583-2.5008621-2.5008583  c-0.0501633,0-0.0966339,0.0116158-0.1457367,0.0147858c-3.8225784-3.8378906-4.9235687-8.5988197-4.9235687-8.5988197H27.7603035  c0.9462719,3.1091766,3.7850876,16.8977013,3.7850876,20.9531517s-1.3518162,8.516449-1.3518162,9.4627151  c0,0.9462738-0.675909,1.7573624-0.675909,1.7573624s-2.7036324,4.3258133-4.0554504,6.2183609  c-1.3518162,1.89254,0.8110905,2.4332657,0.8110905,2.4332657s4.7313576,0,7.0294476,0s2.4332695-0.5407257,2.5684509-1.4869995  c0.1351814-0.9462662,0.94627-1.89254,1.7573624-0.9462662c0.8110886,0.9462662,1.89254-0.4055481,1.89254-0.4055481  s2.0277252-2.0277252,3.920269-4.3258133s-0.4055443-3.2443619-0.4055443-3.2443619  C34.6545677,73.6043854,43.84692,62.2491302,43.84692,62.2491302c5.6776314,1.4869995,11.0848961-0.6759071,13.7885284-1.3518181  c2.7036324-0.6759071,3.5147247,1.3518181,3.5147247,1.3518181l1.8925438,3.2443619  c3.5147247,6.759079,1.0814514,8.7868042,1.0814514,8.7868042s-5.4072647,8.2460785-7.5701714,10.6793518  S54.6614532,88.20401,54.6614532,88.20401c0.2703629,3.9202652,7.8405342,3.1091766,8.9219894,1.4869995  c1.0814514-1.6221848,2.7036362-5.0017242,4.5961761-6.8942719c1.89254-1.89254,1.4869995-2.9739914,1.4869995-2.9739914  c0.202774-4.5285873,1.3518143-5.54245,1.3518143-5.54245c5.6776276-5.1369019,4.1906281-10.2738037,3.7850876-11.2200775  c-0.4055481-0.94627-0.1351852-1.2166328,0.5407257-1.4869957s1.0814514,0.8110886,1.0814514,0.8110886  c4.3258133,9.0571709,3.2443619,14.5996208,3.2443619,16.3569832c0,1.7573547-1.3518143,3.6499023-1.3518143,5.4072647  s0,2.0277252-2.7036362,4.866539s-1.4869995,5.1369019,3.2443619,5.1369019c4.7313538,0,5.9479904-4.4609909,6.8942642-5.8128128  c0.9462662-1.3518143,1.3518143-3.3795395,1.3518143-3.3795395s-0.1351776-3.5147247,0-6.4887161  c0.1351852-2.973999,1.7573624-5.8128128,0.6759109-8.1109009c-1.081459-2.2980881-2.1629105-9.1923523-2.2980881-10.1386261  c-0.1351852-0.94627,0.4055405-4.0554504,1.89254-1.8925438c1.0085831,1.4669342,2.3260727,2.6212921,3.0706329,3.2132378  c-0.3918152,0.4414215-0.6373596,1.0165024-0.6373596,1.6533012c0,0,0.1351776,1.4870033,1.2842255,2.7036324  c1.1490402,1.2166367,0.9462662,2.2304993,0.9462662,2.2304993s0.0675964,1.9601364,1.3518219,0.2703629  S95.0807648,64.3444443,94.8104019,63.1954002z"></path></svg>