<svg fill="#A3A19F" xmlns="http://www.w3.org/2000/svg" xmlns:xlink="http://www.w3.org/1999/xlink" version="1.1" x="0px" y="0px" viewBox="0 0 100 100" enable-background="new 0 0 100 100" xml:space="preserve"><path display="none" d="M43.033,107.872h-8.359l-3.818-11.211c-0.037-0.19-0.102-0.442-0.195-0.755  c-0.092-0.312-0.207-0.686-0.343-1.121l0.056,2.078v11.008h-7.692V76.399h7.914c3.484,0,6.092,0.755,7.822,2.263  c2.199,1.93,3.421,4.575,3.421,8.135c0,3.805-1.599,6.535-4.552,7.989L43.033,107.872z M30.411,90.526h0.519  c0.89,0,1.631-0.374,2.224-1.121c0.593-0.748,0.89-1.698,0.89-2.854c0-2.351-1.119-3.526-3.355-3.526h-0.278V90.526z M42.63,107.872  V76.399h8.989c3.361,0,5.851,0.816,7.469,2.446c1.644,1.672,2.465,3.832,2.465,6.482c0,3.941-1.779,6.074-5.338,6.401  c2.026,0.326,3.512,1.06,4.457,2.202c0.945,1.141,1.418,2.786,1.418,4.932c0,2.705-0.797,4.879-2.391,6.524  c-1.582,1.658-3.664,2.486-6.246,2.486H42.63z M50.359,88.386h0.519c0.927,0,1.659-0.238,2.196-0.713  c0.538-0.475,0.806-1.142,0.806-1.998c0-1.821-0.908-2.732-2.725-2.732c-0.087,0-0.195,0.003-0.324,0.01  c-0.13,0.007-0.287,0.017-0.472,0.03V88.386z M50.359,101.206c0.148,0.014,0.278,0.024,0.389,0.031  c0.111,0.007,0.204,0.011,0.278,0.011c0.964,0,1.733-0.286,2.307-0.859c0.575-0.571,0.862-1.34,0.862-2.302s-0.287-1.716-0.862-2.26  c-0.574-0.544-1.362-0.817-2.363-0.817h-0.611V101.206z M72.382,89.67h10.787v1.266c0,5.883-0.822,10.117-2.465,12.703  c-1.792,2.823-4.442,4.234-7.951,4.234c-3.448,0-6.154-1.378-8.118-4.133c-1.953-2.782-2.929-6.601-2.929-11.456  c0-4.92,0.982-8.797,2.947-11.632c1.964-2.834,4.652-4.228,8.062-4.251c5.035-0.035,10.138,4.689,10.391,10.733l-7.982,0.051  c-0.111-0.992-0.422-1.798-0.824-2.375c-0.402-0.578-0.905-0.867-1.51-0.867c-2.125,0-3.188,3.019-3.188,9.056  c0,2.566,0.234,4.429,0.704,5.591c0.47,1.161,1.217,1.742,2.243,1.742c0.408,0,0.779-0.096,1.112-0.288  c0.334-0.192,0.615-0.463,0.843-0.811c0.229-0.348,0.408-0.771,0.538-1.271c0.13-0.498,0.195-1.054,0.195-1.667h-2.854V89.67z   M22.727,75.722V65.327h2.776l1.458,3.649c0.079,0.215,0.168,0.462,0.269,0.741c0.1,0.278,0.21,0.599,0.331,0.963l0.3,0.916  c-0.107-0.902-0.188-1.674-0.244-2.316c-0.056-0.642-0.084-1.18-0.084-1.616v-2.336h2.804v10.395h-2.804l-1.553-3.824  c-0.163-0.408-0.309-0.791-0.44-1.148c-0.131-0.357-0.245-0.697-0.344-1.02c0.116,0.732,0.201,1.369,0.254,1.912  c0.054,0.543,0.08,1.019,0.08,1.427v2.653H22.727z M38.742,70.555c0,1.538-0.374,2.789-1.123,3.752  c-0.744,0.959-1.713,1.438-2.908,1.438c-1.06,0-1.969-0.368-2.727-1.105c-0.953-0.932-1.43-2.331-1.43-4.196  c0-1.786,0.497-3.152,1.492-4.098c0.739-0.702,1.616-1.052,2.629-1.052c1.241,0,2.229,0.475,2.964,1.425  C38.375,67.668,38.742,68.947,38.742,70.555z M35.722,70.579c0-1.854-0.344-2.781-1.032-2.781c-0.344,0-0.618,0.243-0.823,0.73  c-0.2,0.451-0.3,1.115-0.3,1.991c0,0.863,0.094,1.532,0.282,2.008c0.188,0.476,0.45,0.713,0.785,0.713  c0.344,0,0.609-0.234,0.795-0.704C35.624,72.067,35.722,71.415,35.722,70.579z M42.855,75.711h-2.908v-7.904h-1.604v-2.491h6.179  v2.491h-1.667V75.711z M50.972,66.727c-0.702-0.935-1.62-1.389-2.806-1.389c-0.955,0-1.794,0.346-2.491,1.028  c-0.951,0.931-1.433,2.304-1.433,4.081c0,1.859,0.462,3.266,1.372,4.184c0.504,0.505,1.086,0.834,1.736,0.984  c0.272,0.063,0.556,0.096,0.851,0.096c1.106,0,1.985-0.433,2.686-1.321c0.022-0.027,0.043-0.054,0.065-0.082  c0.719-0.953,1.083-2.213,1.083-3.747C52.034,68.957,51.677,67.666,50.972,66.727z M47.155,72.664  c-0.196-0.51-0.296-1.23-0.296-2.139c0-0.939,0.103-1.635,0.316-2.129c0.235-0.577,0.574-0.872,1.004-0.872  c0.827,0,1.229,1.002,1.229,3.062c0,0.883-0.103,1.587-0.307,2.091c-0.216,0.562-0.546,0.848-0.978,0.848  C47.701,73.526,47.375,73.236,47.155,72.664z M57.646,71.334l0.185-0.083c1.043-0.467,1.55-1.291,1.55-2.519  c0-1.165-0.382-2.037-1.167-2.663c-0.612-0.485-1.561-0.731-2.82-0.731h-2.781V74.6v1.111h2.499v-0.559v-3.009l-0.059-2.003  l0.422,1.228c0.052,0.15,0.095,0.279,0.13,0.386c0.035,0.107,0.06,0.193,0.075,0.263l1.384,3.694h2.694L57.646,71.334z   M56.505,69.72c-0.261,0.299-0.593,0.451-0.986,0.451h-0.393V67.21h0.302c0.955,0,1.46,0.485,1.46,1.404  C56.889,69.056,56.76,69.428,56.505,69.72z M62.659,75.733h-2.908V65.316h2.908V75.733z M70.738,70.549  c0,1.537-0.374,2.786-1.123,3.748c-0.744,0.958-1.713,1.436-2.908,1.436c-1.06,0-1.969-0.368-2.727-1.103  c-0.953-0.931-1.43-2.329-1.43-4.192c0-1.785,0.497-3.149,1.492-4.094c0.739-0.701,1.616-1.051,2.629-1.051  c1.241,0,2.229,0.474,2.964,1.423C70.371,67.666,70.738,68.943,70.738,70.549z M67.718,70.573c0-1.852-0.344-2.778-1.032-2.778  c-0.344,0-0.618,0.243-0.823,0.729c-0.2,0.451-0.3,1.114-0.3,1.989c0,0.862,0.094,1.53,0.282,2.005  c0.188,0.475,0.45,0.713,0.785,0.713c0.344,0,0.609-0.234,0.795-0.703C67.621,72.06,67.718,71.408,67.718,70.573z M75.031,65.327  h2.908v7.241c0,0.606-0.1,1.096-0.3,1.472c-0.195,0.393-0.521,0.749-0.976,1.068c-0.614,0.424-1.36,0.637-2.239,0.637  c-0.995,0-1.83-0.234-2.504-0.703c-0.855-0.597-1.283-1.552-1.283-2.865v-6.85h2.908v6.68c0,0.452,0.057,0.771,0.171,0.959  c0.114,0.188,0.306,0.282,0.575,0.282c0.279,0,0.472-0.087,0.579-0.262c0.107-0.183,0.16-0.507,0.16-0.972V65.327z M78.03,75.308  v-3.205c0.572,0.756,1.19,1.133,1.855,1.133c0.251,0,0.456-0.062,0.614-0.185c0.158-0.124,0.065-0.997-0.279-1.253l-0.474-0.345  c-0.316-0.221-0.586-0.441-0.809-0.661c-0.223-0.219-0.404-0.445-0.544-0.677c-0.139-0.232-0.242-0.472-0.307-0.719  c-0.065-0.247-0.098-0.508-0.098-0.781c0-0.469,0.116-0.959,0.349-1.471c0.116-0.239,0.251-0.457,0.404-0.654  c0.154-0.197,0.33-0.372,0.53-0.524c0.549-0.434,1.211-0.651,1.988-0.651c0.693,0,1.39,0.173,2.092,0.518v3.126  c-0.237-0.355-0.507-0.635-0.809-0.84c-0.302-0.205-0.6-0.307-0.893-0.307c-0.223,0-0.407,0.061-0.551,0.182  c-0.149,0.117-0.223,0.258-0.223,0.423c0,0.269,0.198,0.536,0.593,0.8l0.46,0.319c0.614,0.412,1.053,0.835,1.318,1.268  c0.27,0.434,0.404,0.941,0.404,1.522c0,0.989-0.323,1.804-0.969,2.445c-0.646,0.642-1.465,0.962-2.455,0.962  C79.543,75.733,78.811,75.592,78.03,75.308z"></path><path fill="#A3A19F" d="M48.426,46.64c-0.393,0.036-1.278,0.026-1.278,0.026s0.845,0.404,1.314,0.351  c0.525-0.059,0.921-0.162,1.297-0.321c0.375-0.158,0.692-0.597,0.832-0.729c0.141-0.132-0.584,0.292-0.939,0.413  S48.819,46.604,48.426,46.64z"></path><path fill="#A3A19F" d="M48.15,45.555c0.151-0.019,1.038-0.258,1.619-0.486c0.959-0.376,1.834-0.946,2.618-1.607  c-0.695-0.332-3.583-0.094-3.583-0.094l-0.643,0.577l-0.762-0.191c-0.384-0.032-2.713,0.997-3.236,1.455  c0.076,0.034,1.963,0.496,2.775,0.437C47.101,45.634,48,45.573,48.15,45.555z"></path><path fill="#A3A19F" d="M50.264,38.856c-0.021-0.245-0.208-0.468-0.551-0.636c-0.057-0.028-0.184-0.031-0.237-0.004  c-0.178,0.089,0.367,0.473,0.168,0.726c-0.152,0.194-0.479,0.278-0.7,0.358c-0.342,0.124-0.632,0.3-0.861,0.588  c-0.278,0.351-0.431,0.801-0.779,1.094c-0.454,0.382-0.927,0.405-1.432,0.069c-0.299-0.199-0.652-0.293-1-0.366  c-0.191-0.04-0.776-0.05-0.865-0.26c-0.077-0.18-0.08-0.384-0.058-0.576c0.025-0.221,0.253-0.567,0.123-0.666  c-0.319,0.003-0.394,0.339-0.48,0.596c-0.12,0.311-0.183,0.651-0.023,0.961c0.194,0.377,0.74,0.361,1.1,0.385  c0.407,0.026,0.721,0.229,1.051,0.458c0.185,0.128,0.448,0.275,0.849,0.275c0.08,0,0.164-0.006,0.25-0.018  c0.641-0.089,1.06-0.615,1.347-1.151c0.175-0.328,0.433-0.592,0.751-0.783c0.323-0.195,0.737-0.259,1.038-0.479  C50.172,39.267,50.282,39.065,50.264,38.856z"></path><path d="M42.828,39.207c-0.518,0.341-1.357,3.263-0.909,5.171l0.016,0.034c0.052,0.07,0.104,0.104,0.159,0.104l0,0  c0.046,0,0.102-0.027,0.123-0.102l0.005-0.016l-0.002-0.017c-0.177-1.925,0.716-5.097,0.716-5.097l-0.061-0.077H42.828z"></path><path d="M50.807,38.201c-0.161-0.05-0.293-0.038-0.34,0.098c-0.04,0.117,0.144,0.181,0.217,0.233  c0.454,0.327,0.856,0.725,1.204,1.162c0.437,0.547,0.812,1.173,1.004,1.851l0.01,0.036l0.032,0.019  c0.022,0.013,0.045,0.019,0.069,0.019c0.056,0,0.124-0.039,0.134-0.155c0.09-1.078-0.597-2.067-1.416-2.697  C51.628,38.696,51.15,38.308,50.807,38.201z"></path><path d="M56.499,33.595l-0.067-0.081h-0.047c-0.056,0-0.16,0.047-0.238,0.086l-0.028,0.014l-0.014,0.028  c-1.056,2.173-1.058,3.74-0.68,6.044l0.008,0.026c0.039,0.08,0.089,0.12,0.148,0.12l0,0c0.023,0,0.078-0.007,0.112-0.075  l0.011-0.023l-0.002-0.025c-0.154-1.818,0.153-4.196,0.782-6.058L56.499,33.595z"></path><path fill="#A3A19F" d="M58.102,31.918c0.096,0.312,0.084,0.595,0.044,0.973c-0.048,0.455-0.101,0.668-0.101,0.668l0.285-0.097  c0.346-0.586,0.449-0.759,0.538-0.969c0.148-0.348,0.21-0.843,0.138-1.2c-0.064-0.322-0.266-0.45-0.444-0.642  c-0.178-0.191-0.634-0.21-0.805-0.044c-0.171,0.166-0.116,0.561,0.046,0.646C57.966,31.339,58.006,31.606,58.102,31.918z"></path><path fill="#A3A19F" d="M52.11,33.714c-0.905,0.214-1.951,0.386-3.196,0.272c0,0-0.516-0.08-0.314,0.082  c1.681,0.282,2.206,0.22,3.279-0.066C52.228,33.909,52.368,33.652,52.11,33.714z"></path><path fill="#A3A19F" d="M43.04,35.412c-0.727,0.463-1.27,0.735-2.27,1.096c-0.25,0.09,0.375,0.241,0.711,0.108  c0.842-0.335,1.146-0.52,1.876-1.272C43.464,35.103,43.04,35.412,43.04,35.412z"></path><path fill="#A3A19F" d="M38.385,35.192c0.105-0.37,0.708-0.995,1.166-1.185c-0.059,0.163-0.081,0.341-0.047,0.523  c0.103,0.557,0.648,0.925,1.217,0.82c0.569-0.104,0.947-0.641,0.844-1.198c-0.014-0.074-0.036-0.143-0.064-0.209  c0.37,0.135,0.707,0.349,1.013,0.57c-0.927,0.791-2.068,1.124-3.324,0.966c-0.026-0.003-0.077-0.012-0.14-0.024  c-0.244-0.042-0.469-0.08-0.539-0.069c-0.041,0.006-0.048,0.032-0.049,0.043c-0.004,0.04-0.006,0.068,0.605,0.264  c0.548,0.118,1.013,0.141,1.462,0.075c0.74-0.11,1.401-0.465,2.28-1.038c0.034,0.026,0.07,0.053,0.104,0.078  c0.106,0.082,0.441-0.112,0.295-0.224c-0.58-0.445-1.125-0.801-1.895-0.98c-0.324-0.075-0.648-0.12-0.971-0.088  c-0.163,0.016-0.37,0.043-0.579,0.095c-0.711,0.179-1.159,0.532-1.595,1.227C38.092,34.959,38.341,35.347,38.385,35.192z   M40.078,33.966c0.152-0.028,0.298,0.07,0.325,0.219c0.028,0.149-0.073,0.292-0.226,0.32c-0.152,0.028-0.298-0.07-0.325-0.219  C39.825,34.137,39.926,33.993,40.078,33.966z"></path><path fill="#A3A19F" d="M48.564,33.113c0.846,0.209,1.45,0.313,2.027,0.227c0.442-0.065,0.882-0.257,1.225-0.545  c0.059-0.049,0.44-0.351,0.385-0.455c-0.006-0.012-0.022-0.024-0.046-0.02c-0.255,0.038-0.462,0.316-0.683,0.438  c-0.293,0.162-0.614,0.27-0.944,0.319c-0.549,0.081-1.143,0.004-1.725-0.214c0.199-0.244,0.43-0.525,0.694-0.787  c0.002,0.021,0,0.041,0.003,0.061c0.101,0.686,0.957,1.065,1.532,0.669c0.52-0.359,0.601-1.173,0.092-1.578  c0.321-0.008,0.784,0.291,1.113,0.604c0.104,0.099,0.602,0.167,0.495,0.064c-0.401-0.382-0.849-0.797-1.404-0.929  c-1.411-0.335-2.486,1.207-3.142,2.136C48.103,33.22,48.408,33.183,48.564,33.113z M50.027,31.618  c0.153-0.023,0.295,0.08,0.317,0.23c0.022,0.15-0.084,0.29-0.237,0.312c-0.153,0.023-0.295-0.08-0.317-0.23  C49.768,31.78,49.874,31.64,50.027,31.618z"></path><path fill="#A3A19F" d="M37.015,30.995c-0.29,0.161-0.559,0.39-0.867,0.737c-0.057,0.053-0.067,0.095-0.017,0.102  c0.355-0.141,0.665-0.365,1.026-0.613c0.196-0.134,0.418-0.263,1.165-0.333c0.056-0.005-0.264-0.099-0.264-0.099  C37.643,30.752,37.263,30.857,37.015,30.995z"></path><path d="M38.066,30.696c-0.059-0.005-0.117-0.008-0.175-0.008c-0.328,0-0.664,0.082-0.921,0.225c-0.299,0.167-0.574,0.4-0.885,0.75  c-0.066,0.061-0.091,0.121-0.074,0.177c0.014,0.045,0.054,0.076,0.106,0.083c0.004,0,0.009,0.001,0.013,0.001  c0.011,0,0.023-0.002,0.034-0.006c0.335-0.134,0.622-0.332,0.955-0.561l0.09-0.062c0.159-0.109,0.357-0.245,1.121-0.317  c0.044-0.004,0.085-0.042,0.09-0.086C38.429,30.804,38.363,30.782,38.066,30.696z"></path><path d="M40.6,29.571c-0.066-0.022-0.172-0.033-0.325-0.033c-0.784,0-2.572,0.285-2.837,0.374c-0.415,0.138-0.998,0.391-1.364,0.644  c-0.005,0.004-0.011,0.008-0.015,0.013c-0.042,0.045-0.07,0.073-0.086,0.09c-0.027,0.028-0.064,0.066-0.04,0.123  c0.015,0.034,0.048,0.056,0.085,0.056c0.016,0,0.04-0.012,0.054-0.021c0.012,0.001,0.024,0.001,0.036-0.002  c0.656-0.165,1.312-0.372,1.494-0.441c0.197-0.075,2.754-0.467,3.164-0.467c0.01,0,0.019,0,0.024,0.001  c0.035,0.004,0.07-0.01,0.089-0.04c0.024-0.035,0.029-0.078,0.015-0.117C40.859,29.66,40.712,29.602,40.6,29.571z"></path><path fill="#A3A19F" d="M59.086,29.818c0.092-0.018-0.12-1.372-0.191-1.456c-0.071-0.084-0.469-0.203-0.522-0.124  C58.321,28.316,58.993,29.836,59.086,29.818z"></path><path d="M60.531,36.091c-0.08-0.54-0.397-1.007-0.874-1.294c0.081-0.122,0.131-0.206,0.162-0.271  c0.245-0.507,0.403-2.638,0.446-3.294c0.031-0.384,0.003-0.758-0.025-1.12c-0.017-0.228-0.037-0.856-0.035-0.934  c0.008-0.407,0.017-0.828-0.294-1.402c-0.019-0.035-0.042-0.079-0.071-0.11c-0.109-0.152-0.535-0.654-1.439-0.708  c0.015-0.06,0.029-0.117,0.043-0.173c0.156-0.618,0.268-1.065,0.124-1.884c-0.058-0.33-0.602-3.277-1.833-5.217  c-0.48-0.757-2.711-2.878-3.363-3.312c-0.676-0.451-1.439-0.661-2.4-0.661c-0.465,0-0.94,0.046-1.4,0.091l-0.104,0.01  c-0.882-1.109-2.974-1.484-3.804-1.484L45.6,14.327c-3.201,0.075-7.236,1.745-10.042,4.156c-2.476,2.128-2.938,4.546-3.071,6.181  c-0.107,1.32,0.615,3.818,1.142,5.642c0.177,0.611,0.329,1.14,0.409,1.487c0.103,0.447,0.218,0.871,0.34,1.262  c-0.38,0.216-0.656,0.568-0.823,1.051c-0.194,0.692,0.533,2.108,0.886,2.56c0.205,0.263,0.463,0.477,0.724,0.681  c0.231,0.181,0.52,0.349,0.639,0.631c0.258,0.613,0.454,1.246,0.758,1.839c0.078,0.152-0.087,0.369-0.125,0.514  c-0.394,1.502,1.422,2.663,2.71,1.993c0.145,0.316,0.254,0.645,0.34,1.029c0.032,0.14,0.212,0.651,0.249,0.78  c0.351,0.957,0.758,1.671,1.318,2.314c0.101,0.119,0.562,0.682,0.608,0.733c0.024,0.025,2.733,2.239,4.351,2.947  c1.443,0.631,2.605,0.792,3.585,0.792c2.465,0,4.535-1.857,6.923-6.208c0.014-0.025,2.195-3.881,1.267-6.712  c0.271,0.141,0.57,0.216,0.875,0.216c0.092,0,0.185-0.007,0.276-0.021C59.966,38.041,60.68,37.098,60.531,36.091z M47.811,16.914  c-0.401,0.116-0.771,0.519-1.094,0.885c-0.393,0.444-0.471,1.501-0.704,1.532c-0.233,0.031-0.187-1.183,0.267-1.891  c0.25-0.391,1.179-0.526,1.393-0.526L47.811,16.914z M57.838,37.207c-0.395-0.389-0.529-1.033-0.141-1.544  c0.348-0.459,0.999-0.611,1.516-0.359c0.354,0.173,0.6,0.504,0.656,0.884c0.096,0.65-0.386,1.257-1.026,1.352  C58.474,37.595,58.102,37.467,57.838,37.207z M39.021,24.59c0.036-0.013,0.061-0.047,0.062-0.085  c0.001-0.039-0.022-0.073-0.058-0.087c-0.822-0.325-1.398-0.541-1.579-0.594c-0.07-0.02-0.121-0.038-0.158-0.053  c0.063-0.009,1.062-0.046,1.46,0.012c0.688,0.1,1.711,0.497,1.724,0.46c0.028-0.077-0.938-0.72-1.444-0.953  c-0.476-0.219-2.329-0.597-2.458-0.628c0.148-0.031,1.601,0.013,2.365,0.231c0.766,0.219,2.521,1.467,2.757,1.467  c0.172,0,0.231-0.091,0.251-0.146c0.084-0.228-1.83-1.853-2.711-2.243c-0.85-0.377-1.539-0.675-2.296-0.675  c-0.385,0-0.689,0.047-0.933,0.084c-0.155,0.024-0.276,0.04-0.373,0.042c0.188-0.111,0.679-0.298,1.233-0.361  c0.099-0.011,0.214-0.017,0.342-0.017c0.577,0,1.509,0.129,2.193,0.412c1.311,0.543,2.392,1.624,2.853,2.085  c0.115,0.115,0.191,0.191,0.224,0.215c0.095,0.103,0.268,0.117,0.369,0.042c1.724-1.268,3.554-1.911,5.441-1.911  c0.709,0,1.422,0.092,2.122,0.274c0.759,0.197,0.818,0.318,0.822,0.322c-0.025,0.054-0.271,0.131-0.515,0.162  c-0.042,0.005-0.075,0.039-0.08,0.08c-0.005,0.042,0.019,0.082,0.058,0.097c1.595,0.611,1.615,0.825,1.612,0.85  c-0.041,0.161-0.524,0.078-0.63,0.174c-0.24,0.218,0.516,0.352,0.723,0.435c0.209,0.084,0.635,0.194,0.769,0.405  c-0.016,0.022-0.093,0.062-0.427,0.089c-0.066,0.005-0.088,0.007-0.109,0.015c-0.03,0.012-0.055,0.043-0.06,0.075  c-0.013,0.079,0.005,0.103,0.669,0.668c1.099,0.934,1.958,1.906,2.765,3.099l0.101,0.149l-1.136,0.678l-0.069,0.008l-0.053-0.169  c-0.014-0.045-0.06-0.073-0.105-0.063l-2.033,0.391c-0.978,0.002-2.024,0.156-3.034,0.447c0.094-0.065,0.189-0.131,0.282-0.195  c0.611-0.424,1.399-1.016,2.171-1.019c0.252-0.001,0.499-0.021,0.738-0.106c0.12-0.043,0.518-0.176,0.505-0.352  c-0.003-0.045-0.039-0.094-0.11-0.094c-0.004,0-0.024,0.002-0.029,0.002c-0.469,0.074-1.02,0.043-1.491-0.016  c-0.395-0.05-0.841,0.186-1.19,0.341c-0.697,0.31-1.359,0.692-2.007,1.094c-0.285,0.177-1.769,0.888-1.748,1.223  c0.006,0.103,0.103,0.213,0.29,0.328c-0.58,0.454-0.828,0.899-0.933,1.215c-0.377,0.052-0.761,0.087-1.127,0.197  c-0.102,0.031-0.824,0.369-0.837,0.355c-0.322-0.355-0.957-0.751-2.197-0.786c0.04-0.05,0.069-0.107,0.089-0.172  c0.036-0.118,0.003-0.198-0.031-0.244c-0.091-0.123-0.286-0.142-0.42-0.141c-1.01-0.107-2.053-0.016-3.054,0.143  c-0.61,0.097-1.288,0.203-1.793,0.585c-0.125,0.095-0.484,0.623-0.054,0.57c0.157-0.02,0.238-0.197,0.389-0.246  c0.345-0.11,0.748-0.187,1.127-0.211c0.35-0.022,0.818,0.125,1.149,0.042c-0.864,0.216-1.691,0.526-2.412,0.906l-1.042,0.318  c-0.002-0.02-0.005-0.043-0.008-0.067c-0.025-0.213-0.068-0.57-0.11-0.806c-0.052-0.292-0.107-0.548-0.171-0.806  c-0.09-0.36-0.178-1.101-0.223-1.511c-0.005-0.043-0.038-0.076-0.092-0.082c-0.039,0-0.074,0.024-0.087,0.061  c-0.142,0.4-0.243,0.442-0.243,0.442c-0.084-0.054-0.129-0.676,0.251-1.553c0.019-0.043,0.002-0.094-0.04-0.117  c-0.042-0.023-0.094-0.011-0.121,0.028c-0.15,0.218-0.266,0.296-0.324,0.296c-0.009,0-0.036,0-0.061-0.058  c-0.089-0.21,0.016-0.861,0.545-1.412c0.032-0.033,0.034-0.085,0.006-0.121c-0.029-0.036-0.08-0.045-0.119-0.022  c-0.238,0.143-0.295,0.111-0.295,0.111c-0.089-0.082,0.23-0.804,0.596-1.268C35.805,26.465,37.529,25.111,39.021,24.59z   M51.212,17.755c-0.138-0.038-1.052,0.12-1.777,0.387c-0.594,0.219-1.388,1.191-1.608,1.111c-0.22-0.08,0.863-1.545,1.702-1.736  c0.688-0.156,1.532,0.06,1.817,0.138c0.062,0.017,0.087,0.035,0.095,0.036C51.42,17.722,51.304,17.781,51.212,17.755z M49.73,30.725  c0.535-0.161,1.074-0.283,1.603-0.361c0.474-0.07,0.94-0.106,1.387-0.106c0.075,0,0.149,0.001,0.223,0.003  c1.492,0.04,1.453,1.939,1.447,3.007c-0.003,0.441-0.115,1.012-0.36,1.294c-0.377,0.435-0.942,0.641-1.472,0.821  c-0.614,0.209-1.228,0.397-1.87,0.502c-0.504,0.082-1.097,0.184-1.595,0.018c-0.633-0.211-1.104-0.7-1.533-1.189  c-0.447-0.51-0.809-1.018-0.84-1.722C46.713,32.768,46.81,31.606,49.73,30.725z M36.593,36.117  c-0.191-0.415-0.302-0.825-0.124-1.274c0.288-0.725,1.227-1.03,1.896-1.285c0.819-0.312,1.678-0.516,2.549-0.607  c0.848-0.089,2.477-0.214,2.939,0.736c0.219,0.451,0.281,0.987,0.17,1.471l-0.049,0.218c-0.174,0.772-0.324,1.439-0.838,1.98  c-0.525,0.552-1.382,0.716-2.089,0.908l-0.204,0.056c-0.618,0.17-1.287,0.242-1.927,0.253c-0.509,0.009-0.957-0.128-1.302-0.512  c-0.103-0.115-0.202-0.248-0.302-0.407C37.079,37.143,36.836,36.631,36.593,36.117z M34.544,33.542  c0.124,0.341,0.248,0.627,0.371,0.852l-0.245,0.094c-0.023,0.009-0.042,0.027-0.052,0.051c-0.01,0.023-0.009,0.049,0.001,0.072  l0.26,0.594c0.011,0.025,0.032,0.044,0.058,0.051c0.026,0.008,0.054,0.004,0.077-0.011c0.001-0.001,0.096-0.06,0.21-0.06  c0.043,0,0.084,0.009,0.122,0.026c0.052,0.024,0.118,0.06,0.195,0.108l0.35,0.744l-0.019,0.069c-0.069,0.245,0.42,1.448,0.734,1.686  c0.03,0.022,0.06,0.044,0.091,0.066c0.016,0.011,0.032,0.022,0.049,0.033l0.164,0.369c0.043,0.097,0.087,0.193,0.13,0.293  c0.077,0.179,0.181,0.375,0.273,0.54c-0.127,0.076-0.243,0.166-0.349,0.269c-0.162-0.394-0.298-0.792-0.403-1.186  c-0.019-0.071-0.034-0.138-0.049-0.2c-0.055-0.239-0.102-0.445-0.312-0.67c-0.165-0.177-0.433-0.336-0.692-0.49  c-0.276-0.164-0.562-0.334-0.702-0.514c-0.36-0.461-0.77-1.712-0.742-2.121C34.077,34.026,34.26,33.736,34.544,33.542z   M37.088,40.565c0.01-0.094,0.032-0.186,0.064-0.275c0.03-0.082,0.44-0.672,0.488-0.589c0.395,0.679,0.79,1.357,1.184,2.036  c-0.595,0.32-1.369,0.056-1.644-0.559C37.095,40.987,37.064,40.773,37.088,40.565z M38.892,39.226  c0.328-0.02,0.641-0.063,0.754-0.074c1.121-0.11,2.327-0.323,3.305-0.912c0.735-0.44,1.265-1.097,1.468-1.8l0.233,0.659  c0.016,0.044,0.061,0.069,0.107,0.059c0.046-0.01,0.076-0.053,0.072-0.099l-0.18-1.837c0.021-0.141,0.046-0.255,0.076-0.358  c0.141-0.469,0.623-0.881,1.032-0.881c0.106,0,0.205,0.026,0.296,0.078c0.259,0.148,0.463,0.366,0.6,0.633l0.596,1.993  c0.013,0.045,0.058,0.073,0.104,0.064c0.046-0.008,0.079-0.049,0.076-0.096l-0.061-1.098c0.618,0.639,1.594,1.034,2.617,1.045  l0.051,0c1.431,0,3.53-0.517,4.505-1.653c0.429-0.499,0.494-1.197,0.506-1.679c0.012-0.494-0.033-0.986-0.1-1.474  c-0.053-0.392-0.24-0.855-0.076-1.233c0.091-0.21,1.493-1.171,1.576-0.954c0.162,0.422,0.239,0.897,0.35,1.338  c0.011,0.042,0.049,0.073,0.092,0.07c0.043-0.001,0.08-0.033,0.088-0.076c0.153-0.833,0.035-3.372,1.299-3.372  c1.038,0,1.303,1.138,1.364,1.955c0.126,1.683-0.074,3.424-0.579,5.042c-0.125-0.027-0.255-0.041-0.387-0.041  c-0.505,0-0.993,0.196-1.339,0.538c-0.989,0.978-0.151,2.232-0.093,3.382c0.07,1.389,0.027,2.915-0.469,4.228  c-0.571,1.511-1.631,2.868-2.519,4.208c-0.815,1.229-1.784,2.466-3.209,3.003c-1.066,0.402-2.376,0.38-3.712-0.054  c-0.647-0.21-1.323-0.516-2.128-0.964c-0.166-0.092-0.34-0.181-0.516-0.271c-0.438-0.224-0.89-0.456-1.247-0.752  c-0.859-0.714-1.683-1.488-2.325-2.407c-0.687-0.984-1.062-2.135-1.479-3.249c-0.413-1.103-1.048-2.105-1.68-3.094  C38.055,39.242,38.485,39.251,38.892,39.226z M43.382,21.16c-0.012,0.017-0.049,0.035-0.116,0.035c-0.128,0-1.853-1.148-2.628-1.427  c-0.438-0.158-2.107-0.364-2.416-0.32c0.886-0.365,1.945-0.532,2.651-0.336c0.951,0.264,2.414,1.669,2.508,1.964  C43.388,21.098,43.398,21.139,43.382,21.16z"></path><path d="M86.374,73.684c2.795-4.27,10.568-9.339,3.932-19.507l1.352-0.768C94.699,57.403,97.065,65.574,86.374,73.684z"></path><path d="M75.008,49.223l-19.329-3.332l-0.916,1.438c0,0,0.546,0.138,0.731,0.169c-2.457,4.599-6.521,6.795-10.08,5.352  c-2.032-0.824-3.027-2.128-4.076-5.378l1.038-0.199l-1.198-0.983L22.92,49.642l0.719,1.226l11.559-2.217  c0.159,0.145,0.415,0.369,0.772,0.648c-0.872,1.366-1.418,2.509-1.452,2.578c-0.045,0.094-0.047,0.204-0.007,0.3  c0.041,0.097,0.12,0.171,0.219,0.206c0.396,0.138,1.244,0.426,2.288,0.741c-0.181,0.874-0.349,1.801-0.503,2.786  c-0.031,0.197,0.101,0.383,0.297,0.419c0.058,0.011,1.176,0.215,2.707,0.29c0.111,1.335,0.236,2.295,0.251,2.407  c0.024,0.185,0.182,0.32,0.365,0.32c0.013,0,0.025,0,0.038-0.002c0.129-0.013,1.362-0.144,2.881-0.516  c0.359,0.987,0.708,1.785,0.943,2.18c0.068,0.115,0.19,0.181,0.317,0.181c0.042,0,0.084-0.007,0.126-0.022  c0.369-0.134,1.44-0.727,2.647-1.594c0.904,1.132,1.669,1.966,1.748,2.051c0.07,0.076,0.168,0.118,0.271,0.118  c0.003,0,0.007,0,0.011,0c0.107-0.003,0.207-0.052,0.274-0.135c0.089-0.109,0.981-1.207,1.948-2.688  c1.278,0.667,2.379,1.139,2.662,1.258c0.047,0.02,0.095,0.029,0.143,0.029c0.143,0,0.278-0.083,0.338-0.223  c0.022-0.051,0.427-0.999,0.819-2.389c1.4,0.245,2.548,0.367,2.861,0.397c0.105,0.012,0.21-0.025,0.287-0.097s0.12-0.174,0.117-0.28  c-0.003-0.108-0.03-1.065-0.123-2.385c1.121-0.059,1.992-0.156,2.255-0.188c0.108-0.013,0.205-0.073,0.264-0.164  c0.06-0.091,0.077-0.203,0.045-0.307c-0.006-0.02-0.292-0.982-0.709-2.32c1.061-0.375,1.814-0.721,1.862-0.743  c0.177-0.082,0.26-0.288,0.189-0.469c-0.016-0.04-0.259-0.654-0.737-1.669c0.375-0.19,0.982-0.62,0.982-0.62l12.699,2.25  L75.008,49.223z M55.014,50.577c0.167,0.603,0.251,1.242,0.274,1.893c-0.624-0.056-1.14-0.241-1.461-0.611  C54.242,51.467,54.639,51.04,55.014,50.577z M53.136,52.462c0.046,0.466-0.028,1.028-0.216,1.673  c-0.605-0.18-1.019-0.416-1.207-0.702C52.206,53.153,52.681,52.829,53.136,52.462z M51.577,54.313  c0.298,0.211,0.679,0.378,1.11,0.511c-0.151,0.399-0.339,0.823-0.564,1.273c-0.41-0.126-0.794-0.261-1.141-0.404  C51.256,55.239,51.464,54.776,51.577,54.313z M50.914,53.837c-0.064,0.512-0.286,1.034-0.602,1.543  c-0.566-0.302-0.951-0.633-1.063-0.989C49.808,54.27,50.365,54.084,50.914,53.837z M49.899,55.975  c-0.217,0.282-0.454,0.556-0.703,0.818c-0.293-0.2-0.565-0.401-0.809-0.599c0.244-0.273,0.448-0.567,0.6-0.887  C49.224,55.549,49.535,55.771,49.899,55.975z M47.627,54.572c0.286,0,0.573-0.02,0.86-0.054c-0.105,0.439-0.335,0.833-0.648,1.185  c-0.409-0.41-0.658-0.797-0.671-1.134c0-0.005-0.002-0.01-0.002-0.01C47.319,54.565,47.473,54.572,47.627,54.572z M47.314,56.198  c-0.363,0.293-0.783,0.551-1.226,0.777c-0.251-0.377-0.483-0.75-0.685-1.11c0.441-0.184,0.839-0.399,1.19-0.646  C46.744,55.543,46.996,55.872,47.314,56.198z M44.93,54.047c0.469,0.19,0.952,0.327,1.441,0.414  c-0.382,0.305-0.826,0.55-1.309,0.745c-0.223-0.477-0.37-0.912-0.405-1.275C44.747,53.97,44.838,54.009,44.93,54.047z M43.87,53.535  c-0.287,0.116-0.792,0.126-1.437,0.059c-0.066-0.489-0.097-0.92-0.089-1.283C42.79,52.804,43.29,53.201,43.87,53.535z M41.484,51.13  c-0.454-0.069-0.901-0.183-1.333-0.329c0.056-0.716,0.152-1.375,0.299-1.925C40.776,49.762,41.113,50.503,41.484,51.13z   M37.876,49.717c-0.329-0.2-0.632-0.403-0.904-0.596c0.214-0.316,0.458-0.63,0.699-0.944l0.801-0.154  C38.265,48.547,38.065,49.103,37.876,49.717z M38.322,50.822c0.336,0.174,0.691,0.338,1.059,0.484  c-0.029,0.551-0.04,1.121-0.036,1.691c-0.48-0.121-0.972-0.253-1.462-0.392C38.023,51.978,38.169,51.383,38.322,50.822z   M36.599,48.383c-0.07,0.099-0.152,0.197-0.22,0.295c-0.094-0.074-0.173-0.139-0.253-0.205L36.599,48.383z M35.369,51.824  c0.225-0.436,0.644-1.213,1.194-2.081c0.326,0.231,0.694,0.475,1.097,0.712c-0.17,0.609-0.333,1.256-0.486,1.943  C36.55,52.211,35.939,52.017,35.369,51.824z M37.3,55.662c0.133-0.817,0.275-1.594,0.426-2.329c0.522,0.149,1.074,0.299,1.631,0.435  c0.019,0.734,0.058,1.451,0.104,2.108C38.511,55.825,37.728,55.726,37.3,55.662z M40.014,47.89c-0.302,0.668-0.48,1.598-0.576,2.637  c-0.313-0.134-0.617-0.28-0.905-0.435c0.242-0.806,0.5-1.536,0.774-2.183c0.007-0.016,0.005-0.032,0.01-0.048l0.741-0.142  c0.007,0.024,0.015,0.05,0.023,0.073C40.054,47.821,40.03,47.853,40.014,47.89z M40.106,51.564c0.492,0.154,1.002,0.27,1.523,0.33  c-0.048,0.459-0.026,1.005,0.044,1.598c-0.488-0.079-1.024-0.187-1.587-0.316C40.079,52.632,40.084,52.09,40.106,51.564z   M40.103,53.941c0.579,0.127,1.149,0.234,1.681,0.305c0.09,0.518,0.209,1.058,0.346,1.599c-0.659,0.057-1.313,0.071-1.924,0.059  C40.162,55.291,40.125,54.624,40.103,53.941z M40.456,58.567c-0.046-0.393-0.122-1.078-0.192-1.923  c0.151,0.002,0.305,0.004,0.46,0.003c0.563-0.003,1.096-0.03,1.6-0.077c0.151,0.535,0.315,1.06,0.482,1.556  C41.798,58.368,40.922,58.504,40.456,58.567z M42.873,55.762c-0.13-0.51-0.237-0.991-0.32-1.437  c0.552,0.037,1.038,0.022,1.411-0.069c0.072,0.365,0.216,0.768,0.408,1.19C43.89,55.587,43.385,55.69,42.873,55.762z M43.067,56.481  c0.593-0.087,1.14-0.209,1.64-0.365c0.21,0.386,0.45,0.78,0.707,1.172c-0.422,0.179-0.85,0.333-1.256,0.462  c-0.214,0.068-0.427,0.131-0.638,0.19C43.365,57.482,43.212,56.99,43.067,56.481z M44.475,60.347  c-0.198-0.396-0.449-0.991-0.709-1.706c0.682-0.193,1.393-0.434,2.07-0.732c0.262,0.374,0.531,0.739,0.798,1.086  C45.752,59.63,44.95,60.112,44.475,60.347z M46.508,57.586c0.493-0.258,0.952-0.55,1.35-0.883c0.25,0.21,0.522,0.418,0.809,0.62  c-0.213,0.202-0.427,0.395-0.635,0.574c-0.267,0.23-0.539,0.449-0.808,0.657C46.983,58.239,46.741,57.914,46.508,57.586z   M49.086,60.805c-0.391-0.438-0.889-1.021-1.408-1.671c0.546-0.42,1.101-0.888,1.618-1.389c0.453,0.291,0.925,0.568,1.388,0.824  C50.035,59.556,49.421,60.372,49.086,60.805z M51.307,57.579c-0.074,0.123-0.149,0.244-0.223,0.364  c-0.434-0.239-0.859-0.487-1.26-0.739c0.27-0.292,0.521-0.592,0.748-0.898c0.375,0.165,0.78,0.316,1.206,0.453  C51.631,57.026,51.475,57.298,51.307,57.579z M53.941,59.351c-0.684-0.298-1.446-0.66-2.206-1.057  c0.261-0.422,0.52-0.865,0.763-1.318c0.686,0.191,1.395,0.351,2.072,0.484C54.329,58.301,54.087,58.972,53.941,59.351z   M54.76,56.744c-0.655-0.129-1.305-0.277-1.918-0.441c0.21-0.433,0.399-0.869,0.558-1.299c0.524,0.107,1.095,0.177,1.681,0.219  C54.991,55.756,54.88,56.268,54.76,56.744z M55.188,54.488c-0.584-0.038-1.105-0.101-1.558-0.186  c0.146-0.512,0.238-1.009,0.251-1.471c0.38,0.208,0.851,0.332,1.408,0.375C55.276,53.636,55.24,54.066,55.188,54.488z   M60.621,49.013c-0.315,0.128-0.661,0.249-1.028,0.354c-0.068,0.019-0.134,0.036-0.201,0.054c-0.147-0.444-0.296-0.884-0.446-1.319  c0.425,0.075,0.871,0.155,1.338,0.238C60.404,48.575,60.516,48.8,60.621,49.013z M58.113,47.954c0.186,0.53,0.372,1.077,0.555,1.629  c-0.316,0.058-0.623,0.098-0.917,0.119c-0.146-0.701-0.316-1.351-0.516-1.903C57.506,47.847,57.803,47.899,58.113,47.954z   M57.146,50.451c0.107,0.6,0.198,1.227,0.275,1.851c-0.48,0.094-0.951,0.158-1.392,0.179c-0.026-0.815-0.139-1.562-0.341-2.237  C56.127,50.374,56.618,50.441,57.146,50.451z M55.8,49.508c0.28-0.418,0.545-0.858,0.794-1.319c0.154,0.449,0.289,0.967,0.408,1.525  C56.56,49.694,56.156,49.625,55.8,49.508z M56.031,53.218c0.447-0.019,0.94-0.081,1.476-0.184c0.055,0.512,0.102,1.013,0.14,1.485  c-0.428,0.013-0.876,0.02-1.329,0.013c-0.132-0.002-0.26-0.005-0.387-0.009C55.986,54.072,56.018,53.637,56.031,53.218z   M55.49,56.88c0.048-0.194,0.095-0.392,0.14-0.596c0.076-0.348,0.14-0.688,0.195-1.021c0.641,0.023,1.281,0.019,1.879,0  c0.06,0.841,0.093,1.536,0.11,1.952C57.095,57.135,56.299,57.022,55.49,56.88z M58.147,52.142c-0.073-0.576-0.158-1.155-0.257-1.716  c0.327-0.026,0.664-0.073,1.009-0.14c0.169,0.519,0.332,1.026,0.482,1.503C58.981,51.917,58.565,52.038,58.147,52.142z   M58.387,54.489c-0.042-0.51-0.092-1.055-0.153-1.614c0.052-0.013,0.104-0.024,0.157-0.038c0.419-0.106,0.826-0.226,1.21-0.349  c0.25,0.8,0.452,1.465,0.574,1.869C59.778,54.396,59.14,54.45,58.387,54.489z M60.08,51.554c-0.144-0.456-0.299-0.94-0.459-1.434  c0.058-0.015,0.115-0.028,0.174-0.044c0.376-0.107,0.768-0.243,1.146-0.398c0.273,0.58,0.47,1.029,0.588,1.308  C61.128,51.16,60.63,51.359,60.08,51.554z M61.293,48.707c-0.032-0.065-0.07-0.139-0.104-0.207c0.119,0.021,0.238,0.042,0.358,0.064  C61.464,48.612,61.385,48.659,61.293,48.707z"></path><path d="M17.356,69.085c-7.327-5.929-9.17-10.844-8.648-16.374l1.367,0.853c-0.399,5.591,1.182,7.872,7.326,15.49L17.356,69.085z"></path><path d="M97.398,29.243c-0.014-0.034-0.029-0.068-0.046-0.1c-0.468-0.89-1.815-1.118-2.634-0.655  c-0.84,0.476-1.32,1.387-1.755,2.249c-1.343,2.665-2.685,5.33-4.028,7.995c0.229-4.155,0.458-8.312,0.517-12.473  c0.01-0.717,0.013-1.451-0.22-2.13c-0.233-0.679-0.747-1.304-1.445-1.472c-0.886-0.213-1.807,0.375-2.274,1.157  s-0.584,1.717-0.695,2.621c-0.485,3.953-1.047,7.897-1.686,11.828c-0.63-4.117-1.287-8.229-1.97-12.337  c-0.129-0.776-0.274-1.587-0.759-2.206c-0.546-0.697-1.506-1.042-2.371-0.852s-1.592,0.907-1.794,1.769  c-0.145,0.618-0.038,1.264,0.07,1.889c0.831,4.808,1.662,9.615,2.493,14.423c-1.609-4.172-3.218-8.345-4.827-12.517  c-0.214-0.556-0.444-1.134-0.888-1.53c-1.108-0.988-3.109-0.165-3.505,1.265c-0.323,1.167,0.182,2.385,0.646,3.503  c2.637,6.345,4.292,13.098,4.888,19.944c-2.502,1.313-4.954,2.722-7.348,4.222c-1.336,0.837-2.831,2.08-2.557,3.632  c0.172,0.972,1.052,1.704,2.006,1.961c0.953,0.257,1.967,0.12,2.931-0.094c2.329-0.517,4.559-1.477,6.534-2.813  c0.243-0.165,0.488-0.337,0.768-0.428c0.552-0.179,1.147-0.013,1.72,0.081c1.958,0.319,4.046-0.275,5.543-1.577  c0.259-0.225,0.512-0.477,0.839-0.581c0.356-0.114,0.74-0.034,1.112,0.001c1.523,0.144,3.058-0.501,4.178-1.543  c1.12-1.042,1.853-2.448,2.289-3.914c0.503-1.688,0.633-3.463,0.697-5.223c0.058-1.621,0.064-3.257,0.412-4.841  c0.628-2.852,2.28-5.348,2.973-8.179c0.14-0.573,0.237-1.157,0.269-1.746C97.502,30.167,97.556,29.64,97.398,29.243z M95.747,29.276  c0.12,0.015,0.247,0.042,0.387,0.092c0.143,0.051,0.237,0.144,0.307,0.299c0.036,0.081,0.06,0.176,0.078,0.277  c-0.374-0.299-0.586-0.473-0.732-0.613l-0.048-0.047L95.747,29.276z M95.453,29.274l0.011,0.01c0,0-1.038,0.874-1.076,0.905  C94.646,29.718,94.96,29.334,95.453,29.274z M91.734,35.42l1.376,1.144v0.987l-1.803,1.496l-0.991-0.824L91.734,35.42z   M92.961,42.83l-1.652,1.353l-1.81-1.488l-0.002-0.977l1.812-1.49c0,0,1.288,1.05,1.527,1.25  C92.774,41.957,92.869,42.478,92.961,42.83z M88.313,30.824l-0.104,2.159l-1.049,0.855l-1.811-1.488l-0.002-0.977l1.812-1.49  L88.313,30.824z M87.337,29.244l1.098-0.907l-0.089,1.827c0,0-0.011-0.009-0.016-0.013L87.337,29.244z M88.174,33.693L88.1,35.209  l-0.868-0.722L88.174,33.693z M88.069,35.874c-0.046,0.97-0.087,1.831-0.116,2.461l-0.811,0.711l-1.799-1.496l-0.047-0.987  l1.799-1.499L88.069,35.874z M87.097,40.227l1.812,1.49l0,0.976l-1.812,1.489l-1.811-1.488l-0.001-0.977L87.097,40.227z   M85.287,47.842l-0.001-0.977l1.812-1.49l1.812,1.49l0,0.976l-1.812,1.489L85.287,47.842z M86.957,44.775l-1.965,1.641l-1.972-1.641  l1.972-1.633L86.957,44.775z M84.698,46.865l0,0.976l-1.812,1.489l-1.811-1.488l-0.002-0.977l1.812-1.49L84.698,46.865z   M80.79,46.409l-1.963-1.634l1.963-1.625l1.956,1.625L80.79,46.409z M80.505,46.865l-0.001,0.976l-1.812,1.489l-1.81-1.488  l-0.002-0.977l1.812-1.49L80.505,46.865z M76.587,46.417l-1.318-1.083l-0.14-1l1.458-1.193l1.965,1.633L76.587,46.417z   M76.293,46.865l0,0.976l-0.608,0.508l-0.31-2.246L76.293,46.865z M76.587,48.289l2.011,1.678l-1.95,1.791l-0.557-0.463  l-0.322-2.332L76.587,48.289z M76.953,52.197l1.799-1.499l1.803,1.499v0.987l-1.803,1.496l-1.799-1.496V52.197z M78.781,49.965  l2.009-1.668l2.022,1.691l-1.961,1.764L78.781,49.965z M81.147,52.197l1.799-1.499l1.803,1.499v0.987l-1.803,1.496l-1.799-1.496  V52.197z M82.962,49.977l2.03-1.687l2.023,1.699l-1.962,1.771L82.962,49.977z M89.204,48.289l2.05,1.722l-1.989,1.747l-2.092-1.776  L89.204,48.289z M89.203,46.417l-1.972-1.641l1.972-1.633l1.964,1.633L89.203,46.417z M89.086,40.408l0.242-0.23  c0,0,0.295-0.584,0.742-1.468l1.101,0.915l-1.968,1.644l-1.974-1.643l0.691-0.573c-0.007,0.158-0.011,0.274-0.013,0.33  c-0.012,0.386,0.075,0.67,0.265,0.866C88.435,40.519,88.975,40.459,89.086,40.408z M87.777,23.732  c0.038,0.024,0.076,0.044,0.112,0.081c0.243,0.249,0.403,0.727,0.502,1.24c-0.02-0.016-0.043-0.036-0.062-0.051l-0.144-0.117  c-0.452-0.36-0.683-0.547-0.843-0.702l-0.05-0.049L87.777,23.732z M86.689,23.857l0.333,0.276l-0.054,0.054  c-0.149,0.151-0.378,0.334-0.836,0.699l-0.032,0.026C86.214,24.389,86.398,24.049,86.689,23.857z M85.978,25.7l1.182-0.964  l1.336,1.09l-0.026,1.797l-1.31,1.068l-1.434-1.173L85.978,25.7z M85.638,28.136l1.38,1.147l-1.757,1.468L85.638,28.136z   M85.054,32.798l1.968,1.637l-2.031,1.691l-0.458-0.38L85.054,32.798z M84.444,36.362l0.243,0.202v0.987l-0.475,0.394  C84.211,37.945,84.418,36.354,84.444,36.362z M84.036,38.947l0.051-0.159c0.001-0.011,0.005-0.034,0.008-0.056l0.896-0.743  l1.968,1.636l-1.967,1.644c0,0-1.702-1.391-1.859-1.536C83.576,39.681,83.888,39.231,84.036,38.947z M84.698,41.717l0,0.976  l-1.812,1.489l-1.811-1.488l-0.002-0.977l1.812-1.49L84.698,41.717z M82.748,39.625l-1.958,1.636c0,0-0.623-0.52-0.899-0.744  l-0.289-1.536l1.187-0.984L82.748,39.625z M79.491,38.383l-0.59-3.144l1.593,1.325v0.987L79.491,38.383z M82.167,38.45l-1.082-0.899  v-0.987l0.676-0.563C81.934,37.066,82.079,37.947,82.167,38.45z M81.18,32.386c-0.014-0.012-0.03-0.025-0.043-0.036  c-0.006-0.085-0.008-0.198-0.011-0.302C81.144,32.161,81.162,32.273,81.18,32.386z M80.935,30.847  c-0.027,0.022-0.058,0.048-0.083,0.07c-0.285-0.244-1.963-1.634-1.963-1.634l1.59-1.313C80.479,27.971,80.765,29.778,80.935,30.847z   M79.134,23.929c0.373,0.2,0.62,0.633,0.78,1.065l-0.134-0.109c-0.452-0.36-0.683-0.547-0.843-0.702l-0.05-0.049L79.134,23.929z   M77.078,25.419c-0.01-0.239,0.017-0.563,0.188-0.857c0.192-0.328,0.542-0.559,1.035-0.69l0.315,0.262l-0.054,0.054  c-0.149,0.151-0.378,0.334-0.836,0.699l-0.068,0.055C77.491,25.079,77.285,25.247,77.078,25.419z M77.476,27.648l-0.303-1.617  l1.582-1.295l1.393,1.138l0.234,1.486l-1.627,1.332L77.476,27.648z M77.898,29.898l-0.271-1.442c0,0,0.215,0.154,0.987,0.829  L77.898,29.898z M78.009,30.49l0.746-0.607l1.812,1.49l0,0.976l-1.812,1.489L78.009,30.49z M78.828,34.487  c0,0,1.694-1.398,2.023-1.682c0.142,0.121,0.301,0.253,0.456,0.381c0.122,0.762,0.243,1.512,0.354,2.204l-0.873,0.727L78.828,34.487  z M77.76,41.248c0.287,0.57,0.651,0.689,0.907,0.689c0.526,0,0.889-0.505,1.077-0.853c0.253,0.206,0.761,0.633,0.761,0.633  l-0.001,0.976l-1.812,1.489l-1.81-1.488c0,0-0.01-0.871-0.002-0.977c0.23-0.198,0.535-0.449,0.792-0.66  C77.707,41.135,77.737,41.203,77.76,41.248z M77.461,40.545l-0.874,0.724l-1.974-1.643l1.892-1.57  C76.89,39.082,77.461,40.545,77.461,40.545z M75.431,35.165l-0.815-0.677l0.428-0.375L75.431,35.165z M73.739,30.538l1.11,3.044  l-0.307,0.256l-1.81-1.488l-0.002-0.977L73.739,30.538z M71.094,27.646c0.257-0.147,0.503-0.222,0.732-0.222  c0.017,0,0.029,0.007,0.046,0.008c-0.279,0.233-0.592,0.484-0.807,0.656l-0.041,0.032c-0.248,0.2-0.411,0.333-0.547,0.447  C70.509,28.24,70.661,27.895,71.094,27.646z M70.465,29.284c0,0,1.956-1.712,1.972-1.633s0.366,0.305,0.366,0.305  s0.367,1.016,0.744,2.054l-1.109,0.916L70.465,29.284z M71.715,32.71l-0.763-2.32c0,0,0.042,0.035,0.071,0.057l1.121,0.926l0,0.976  L71.715,32.71z M71.893,33.252c0.187-0.152,0.544-0.454,0.544-0.454l1.968,1.637l-1.666,1.388L71.893,33.252z M73.545,38.271  l-0.627-1.905l1.561-1.301l1.32,1.098l0.482,1.388l-1.803,1.496L73.545,38.271z M73.859,39.222l0.484,0.403l-0.053,0.054  c-0.056,0.057-0.13,0.122-0.216,0.196L73.859,39.222z M75.042,43.72c-0.083-0.586-0.168-1.167-0.224-1.526  c-0.13-0.831-0.471-1.594-0.56-1.781c0.082-0.067,0.223-0.186,0.223-0.186l1.812,1.49l0,0.976  C76.293,42.693,75.089,43.682,75.042,43.72z M76.344,52.197v0.987l-1.803,1.496l-1.172-0.974L76.344,52.197z M72.875,53.987  l1.53,1.272l-1.968,1.644l-1.877-1.552L72.875,53.987z M68.81,56.415l-0.596,0.497c0,0-0.067-0.056-0.099-0.083  C68.318,56.711,68.81,56.415,68.81,56.415z M67.563,57.136c0.016-0.008,0.039-0.021,0.056-0.03c0.1,0.084,0.206,0.171,0.291,0.245  c0.014,0.153,0,0.976,0,0.976s-1.459,1.196-1.582,1.297C66.087,58.581,66.543,57.639,67.563,57.136z M68.418,60.6  c-0.763,0-1.342-0.188-1.769-0.552c0.124-0.102,1.566-1.282,1.566-1.282s1.766,1.443,1.915,1.585  C69.582,60.494,68.991,60.6,68.418,60.6z M68.521,58.328l-0.002-0.977l1.812-1.49l1.812,1.49l0,0.976c0,0-1.795,1.504-1.812,1.489  C70.18,59.686,68.521,58.328,68.521,58.328z M71.441,59.918c-0.21,0.084-0.452,0.171-0.708,0.256  c0.143-0.12,1.705-1.398,1.705-1.398l0.591,0.492C73.029,59.267,72.023,59.69,71.441,59.918z M73.58,59.029  c-0.289-0.233-0.847-0.701-0.847-0.701s-0.01-0.871-0.002-0.977c0.315-0.271,1.812-1.49,1.812-1.49s1.526,1.241,1.812,1.49  c0.007,0.084,0.006,0.175,0.009,0.263C76.013,57.86,75.074,58.369,73.58,59.029z M76.649,56.903l-1.974-1.643l1.973-1.637  l1.968,1.636L76.649,56.903z M79.184,57.197c-0.921-0.251-1.492-0.249-1.88-0.15c0.246-0.205,1.294-1.049,1.451-1.187  c0.159,0.138,1.449,1.181,1.729,1.42C79.991,57.321,79.542,57.295,79.184,57.197z M80.851,56.895  c0.024-0.025-1.915-1.586-1.915-1.586l1.914-1.678l1.959,1.628C82.81,55.259,80.827,56.92,80.851,56.895z M81.399,57.128  c0.272-0.228,1.549-1.268,1.549-1.268l0.53,0.435C83.478,56.295,82.097,56.968,81.399,57.128z M85.192,54.975l-0.22,0.011  l-0.14,0.17c-0.257,0.312-0.569,0.578-0.9,0.822c-0.422-0.337-0.646-0.52-0.802-0.669l-0.05-0.049l1.973-1.637l1.634,1.359  C86.219,54.967,85.717,54.949,85.192,54.975z M87.157,54.68l-1.799-1.496v-0.987l1.799-1.499l1.803,1.499v0.987L87.157,54.68z   M88.748,54.74c-0.238,0.163-0.592,0.238-1.135,0.253l1.651-1.37l0.484,0.403C89.419,54.284,89.081,54.514,88.748,54.74z   M90.163,53.678l-0.593-0.493v-0.987l1.799-1.499l0.548,0.456C91.452,52.314,90.834,53.083,90.163,53.678z M92.109,50.622  l-0.72-0.65c0,0,1.06-0.889,1.106-0.926C92.393,49.637,92.262,50.157,92.109,50.622z M92.607,48.272l-1.298,1.058l-1.81-1.488  l-0.002-0.977l1.812-1.49c0,0,1.234,1.006,1.451,1.187L92.607,48.272z M92.814,45.915l-1.371-1.14l1.573-1.298L92.814,45.915z   M92.991,40.914l-1.55-1.288l1.985-1.646l0.496,0.413L92.991,40.914z M94.118,37.864l-0.376-0.312v-0.987l1.242-1.035  C94.707,36.276,94.406,37.087,94.118,37.864z M93.426,36.135l-1.445-1.202c0.267-0.528,0.78-1.541,0.78-1.541l0.728-0.604  l1.979,1.646L93.426,36.135z M95.615,33.83l-1.82-1.48l-0.001-0.977l1.812-1.49l0.93,0.758L95.615,33.83z"></path><path d="M1.359,29.071c0.031,0.589,0.128,1.174,0.269,1.746c0.693,2.83,2.345,5.327,2.973,8.179c0.349,1.584,0.354,3.22,0.412,4.841  c0.063,1.76,0.194,3.535,0.697,5.223C6.147,50.527,6.88,51.933,8,52.974c1.12,1.042,2.655,1.687,4.178,1.543  c0.372-0.035,0.756-0.115,1.112-0.001c0.326,0.104,0.58,0.356,0.839,0.581c1.497,1.302,3.585,1.897,5.543,1.577  c0.573-0.093,1.168-0.259,1.72-0.081c0.28,0.09,0.524,0.263,0.768,0.428c1.976,1.337,4.205,2.297,6.534,2.813  c0.964,0.214,1.978,0.351,2.931,0.094c0.953-0.257,1.834-0.989,2.006-1.961c0.274-1.552-1.221-2.795-2.557-3.632  c-2.394-1.5-4.846-2.909-7.348-4.222c0.596-6.846,2.251-13.598,4.888-19.944c0.465-1.118,0.97-2.336,0.646-3.503  c-0.396-1.43-2.397-2.253-3.505-1.265c-0.445,0.397-0.674,0.975-0.888,1.53c-1.609,4.172-3.218,8.345-4.827,12.517  c0.831-4.808,1.662-9.615,2.493-14.423c0.108-0.625,0.216-1.271,0.07-1.889c-0.203-0.862-0.93-1.578-1.794-1.769  s-1.825,0.154-2.371,0.852c-0.485,0.619-0.63,1.43-0.759,2.206c-0.684,4.108-1.34,8.22-1.97,12.337  c-0.639-3.931-1.201-7.875-1.686-11.828c-0.111-0.904-0.228-1.839-0.695-2.621c-0.467-0.782-1.389-1.371-2.274-1.157  c-0.698,0.168-1.212,0.793-1.445,1.472c-0.233,0.679-0.23,1.413-0.22,2.13c0.059,4.161,0.288,8.318,0.517,12.473  c-1.343-2.665-2.685-5.33-4.028-7.995c-0.435-0.862-0.914-1.774-1.755-2.249c-0.819-0.464-2.166-0.235-2.634,0.655  c-0.017,0.032-0.032,0.065-0.046,0.1C1.285,28.14,1.338,28.667,1.359,29.071z M3.102,27.784L3.054,27.83  c-0.146,0.14-0.358,0.314-0.732,0.613c0.018-0.101,0.042-0.196,0.078-0.277c0.069-0.155,0.164-0.248,0.307-0.299  c0.14-0.05,0.267-0.077,0.387-0.092L3.102,27.784z M4.452,28.688c-0.038-0.031-1.076-0.905-1.076-0.905l0.011-0.01  C3.881,27.834,4.195,28.218,4.452,28.688z M8.524,36.723l-0.991,0.824l-1.803-1.496v-0.987l1.376-1.144L8.524,36.723z M6.004,39.978  c0.239-0.2,1.527-1.25,1.527-1.25l1.812,1.49l-0.002,0.977l-1.81,1.488L5.879,41.33C5.972,40.978,6.067,40.457,6.004,39.978z   M11.681,28.383l1.812,1.49l-0.002,0.977l-1.811,1.488l-1.049-0.855l-0.104-2.159L11.681,28.383z M10.512,28.65  c-0.005,0.004-0.016,0.013-0.016,0.013l-0.089-1.827l1.098,0.907L10.512,28.65z M11.608,32.987l-0.868,0.722l-0.073-1.516  L11.608,32.987z M11.745,33.565l1.799,1.499l-0.047,0.987l-1.799,1.496l-0.811-0.711c-0.029-0.63-0.069-1.491-0.116-2.461  L11.745,33.565z M13.555,40.218l-0.001,0.977l-1.811,1.488l-1.812-1.489l0-0.976l1.812-1.49L13.555,40.218z M11.743,47.83  l-1.812-1.489l0-0.976l1.812-1.49l1.812,1.49l-0.001,0.977L11.743,47.83z M13.848,41.642l1.972,1.633l-1.972,1.641l-1.965-1.641  L13.848,41.642z M15.954,43.875l1.812,1.49l-0.002,0.977l-1.811,1.488l-1.812-1.489l0-0.976L15.954,43.875z M16.095,43.275  l1.956-1.625l1.963,1.625l-1.963,1.634L16.095,43.275z M20.148,43.875l1.812,1.49l-0.002,0.977l-1.81,1.488l-1.812-1.489  l-0.001-0.976L20.148,43.875z M20.288,43.275l1.965-1.633l1.458,1.193l-0.14,1l-1.318,1.083L20.288,43.275z M23.465,44.603  l-0.31,2.246c-0.212-0.172-0.608-0.508-0.608-0.508l0-0.976C22.547,45.365,23.188,44.828,23.465,44.603z M23.071,47.464  l-0.322,2.332l-0.557,0.463l-1.95-1.791l2.011-1.678L23.071,47.464z M21.887,51.685l-1.799,1.496l-1.803-1.496v-0.987l1.803-1.499  l1.799,1.499V51.685z M17.99,50.252l-1.961-1.764l2.022-1.691l2.009,1.668L17.99,50.252z M17.694,51.685l-1.799,1.496l-1.803-1.496  v-0.987l1.803-1.499l1.799,1.499V51.685z M13.787,50.259l-1.962-1.771l2.023-1.699l2.03,1.687L13.787,50.259z M11.667,48.483  l-2.092,1.776l-1.989-1.747l2.05-1.722L11.667,48.483z M7.672,43.275l1.964-1.633l1.972,1.633l-1.972,1.641L7.672,43.275z   M10.668,38.749c0.19-0.196,0.259-1.038,0.252-1.196l0.691,0.573l-1.974,1.643l-1.968-1.644L8.77,37.21  c0.446,0.883,0.742,1.468,0.742,1.468l0.242,0.23C9.866,38.959,10.406,39.019,10.668,38.749z M11.549,22.635l-0.05,0.049  c-0.161,0.155-0.391,0.342-0.843,0.702l-0.144,0.117c-0.019,0.015-0.043,0.035-0.062,0.051c0.099-0.514,0.259-0.991,0.502-1.24  c0.037-0.037,0.075-0.057,0.112-0.081L11.549,22.635z M12.742,23.413l-0.032-0.026c-0.458-0.366-0.688-0.548-0.836-0.699  l-0.054-0.054l0.333-0.276C12.442,22.549,12.627,22.889,12.742,23.413z M13.115,26.018l-1.434,1.173l-1.31-1.068l-0.026-1.797  l1.336-1.09l1.182,0.964L13.115,26.018z M13.579,29.252l-1.757-1.468l1.38-1.147L13.579,29.252z M14.307,34.245l-0.458,0.38  l-2.031-1.691l1.968-1.637L14.307,34.245z M14.629,36.445l-0.475-0.394v-0.987l0.243-0.202  C14.423,34.854,14.629,36.445,14.629,36.445z M15.708,38.234c-0.158,0.145-1.859,1.536-1.859,1.536l-1.967-1.644l1.968-1.636  l0.896,0.743c0.003,0.022,0.007,0.045,0.008,0.056l0.051,0.159C14.952,37.731,15.264,38.181,15.708,38.234z M15.954,38.727  l1.812,1.49l-0.002,0.977l-1.811,1.488l-1.812-1.489l0-0.976L15.954,38.727z M18.052,36.497l1.187,0.984l-0.289,1.536  c-0.276,0.224-0.899,0.744-0.899,0.744l-1.958-1.636L18.052,36.497z M18.347,36.051v-0.987l1.593-1.325l-0.59,3.144L18.347,36.051z   M17.08,34.501l0.676,0.563v0.987l-1.082,0.899C16.762,36.447,16.907,35.566,17.08,34.501z M18.362,26.471l1.59,1.313  c0,0-1.678,1.389-1.963,1.634c-0.025-0.022-0.057-0.047-0.083-0.07C18.076,28.278,18.362,26.471,18.362,26.471z M19.954,22.635  l-0.05,0.049c-0.161,0.155-0.392,0.342-0.843,0.702l-0.134,0.109c0.16-0.432,0.407-0.865,0.78-1.065L19.954,22.635z M21.182,23.443  l-0.068-0.055c-0.458-0.366-0.688-0.548-0.836-0.699l-0.054-0.054l0.315-0.262c0.493,0.131,0.843,0.362,1.035,0.69  c0.171,0.294,0.198,0.618,0.188,0.857C21.555,23.747,21.349,23.579,21.182,23.443z M20.086,27.191l-1.627-1.332l0.234-1.486  l1.393-1.138l1.582,1.295l-0.303,1.617L20.086,27.191z M20.226,27.784c0.772-0.674,0.987-0.829,0.987-0.829l-0.271,1.442  L20.226,27.784z M20.086,32.338l-1.812-1.489l0-0.976l1.812-1.49l0.746,0.607L20.086,32.338z M18.052,34.618l-0.873-0.727  c0.112-0.692,0.232-1.442,0.354-2.204c0.155-0.128,0.314-0.26,0.456-0.381c0.33,0.284,2.023,1.682,2.023,1.682L18.052,34.618z   M21.167,39.558c0.257,0.21,0.562,0.461,0.792,0.66c0.008,0.105-0.002,0.977-0.002,0.977l-1.81,1.488l-1.812-1.489l-0.001-0.976  c0,0,0.508-0.427,0.761-0.633c0.188,0.348,0.551,0.853,1.077,0.853c0.256,0,0.621-0.119,0.907-0.689  C21.103,39.703,21.134,39.635,21.167,39.558z M22.335,36.557l1.892,1.57l-1.974,1.643l-0.874-0.724  C21.38,39.045,21.951,37.582,22.335,36.557z M23.797,32.612l0.428,0.375l-0.815,0.677L23.797,32.612z M26.11,29.873l-0.002,0.977  l-1.81,1.488l-0.307-0.256l1.11-3.044L26.11,29.873z M28.363,27.069c-0.136-0.114-0.299-0.247-0.547-0.447l-0.041-0.032  c-0.215-0.172-0.528-0.424-0.807-0.656c0.017-0.001,0.029-0.008,0.046-0.008c0.229,0,0.476,0.074,0.732,0.222  C28.18,26.395,28.331,26.74,28.363,27.069z M26.403,29.425l-1.109-0.916c0.376-1.038,0.744-2.054,0.744-2.054  s0.349-0.226,0.366-0.305s1.972,1.633,1.972,1.633L26.403,29.425z M26.698,30.849l0-0.976l1.121-0.926  c0.028-0.022,0.071-0.057,0.071-0.057l-0.763,2.32L26.698,30.849z M26.101,34.322l-1.666-1.388l1.968-1.637  c0,0,0.357,0.302,0.544,0.454L26.101,34.322z M24.362,37.547l-1.803-1.496l0.482-1.388l1.32-1.098l1.561,1.301l-0.627,1.905  L24.362,37.547z M24.767,38.375c-0.086-0.073-0.27-0.25-0.27-0.25l0.484-0.403L24.767,38.375z M22.548,41.193l0-0.976l1.812-1.49  c0,0,0.141,0.119,0.223,0.186c-0.089,0.187-0.43,0.95-0.56,1.781c-0.056,0.36-0.141,0.94-0.224,1.526  C23.751,42.182,22.548,41.193,22.548,41.193z M25.472,52.206L24.3,53.18l-1.803-1.496v-0.987L25.472,52.206z M28.28,53.851  l-1.877,1.552l-1.968-1.644l1.53-1.272L28.28,53.851z M30.725,55.329c-0.032,0.027-0.099,0.083-0.099,0.083l-0.596-0.497  C30.03,54.915,30.522,55.211,30.725,55.329z M32.513,58.124c-0.122-0.101-1.582-1.297-1.582-1.297s-0.014-0.823,0-0.976  c0.085-0.074,0.191-0.161,0.291-0.245c0.017,0.009,0.04,0.022,0.056,0.03C32.298,56.139,32.753,57.081,32.513,58.124z   M28.711,58.851c0.149-0.142,1.915-1.585,1.915-1.585s1.442,1.18,1.566,1.282c-0.427,0.365-1.006,0.552-1.769,0.552  C29.849,59.1,29.259,58.994,28.711,58.851z M28.509,58.316c-0.016,0.015-1.812-1.489-1.812-1.489l0-0.976l1.812-1.49l1.812,1.49  l-0.002,0.977C30.32,56.828,28.66,58.186,28.509,58.316z M25.812,57.767l0.591-0.492c0,0,1.562,1.277,1.705,1.398  c-0.257-0.084-0.498-0.172-0.708-0.256C26.817,58.19,25.812,57.767,25.812,57.767z M22.476,56.114  c0.002-0.088,0.001-0.179,0.009-0.263c0.287-0.249,1.812-1.49,1.812-1.49s1.497,1.219,1.812,1.49  c0.008,0.105-0.002,0.977-0.002,0.977s-0.559,0.468-0.847,0.701C23.766,56.869,22.827,56.36,22.476,56.114z M20.224,53.759  l1.968-1.636l1.973,1.637l-1.974,1.643L20.224,53.759z M18.357,55.781c0.28-0.24,1.569-1.282,1.729-1.42  c0.157,0.137,1.205,0.982,1.451,1.187c-0.388-0.099-0.959-0.101-1.88,0.15C19.298,55.795,18.849,55.821,18.357,55.781z   M16.031,53.759l1.959-1.628l1.914,1.678c0,0-1.939,1.562-1.915,1.586S16.031,53.759,16.031,53.759z M15.363,54.795l0.53-0.435  c0,0,1.276,1.04,1.549,1.268C16.743,55.468,15.363,54.795,15.363,54.795z M12.153,53.481l1.634-1.359l1.973,1.637l-0.05,0.049  c-0.155,0.15-0.38,0.333-0.802,0.669c-0.331-0.244-0.643-0.51-0.9-0.822l-0.14-0.17l-0.22-0.011  C13.123,53.449,12.621,53.467,12.153,53.481z M9.881,51.684v-0.987l1.803-1.499l1.799,1.499v0.987l-1.799,1.496L9.881,51.684z   M9.091,52.525l0.484-0.403l1.651,1.37c-0.543-0.015-0.896-0.09-1.135-0.253C9.76,53.014,9.422,52.784,9.091,52.525z M6.923,49.654  l0.548-0.456l1.799,1.499v0.987l-0.593,0.493C8.007,51.583,7.389,50.814,6.923,49.654z M6.346,47.547  c0.046,0.037,0.853,0.692,1.008,0.835l0.098,0.09l-0.72,0.65C6.579,48.657,6.448,48.137,6.346,47.547z M6.08,45.061  c0.217-0.181,1.451-1.187,1.451-1.187l1.812,1.49l-0.002,0.977l-1.81,1.488l-1.298-1.058L6.08,45.061z M5.825,41.977l1.573,1.298  l-1.371,1.14L5.825,41.977z M4.918,36.892l0.496-0.413l1.985,1.646l-1.55,1.288L4.918,36.892z M3.857,34.029l1.242,1.035v0.987  l-0.376,0.312C4.434,35.587,4.134,34.776,3.857,34.029z M3.373,32.934l1.979-1.646l0.728,0.604c0,0,0.513,1.013,0.78,1.541  l-1.445,1.202L3.373,32.934z M2.306,29.141l0.93-0.758l1.812,1.49L5.046,30.85l-1.82,1.48L2.306,29.141z"></path></svg>