<svg fill="#1244A7" xmlns="http://www.w3.org/2000/svg" xmlns:xlink="http://www.w3.org/1999/xlink" version="1.1" x="0px" y="0px" viewBox="0 0 100 100" enable-background="new 0 0 100 100" xml:space="preserve"><g><polygon fill-rule="evenodd" clip-rule="evenodd" fill="#1244A7" points="31.379,40.866 68.91,40.866 69.412,40.42 51.025,33.323    51.025,29.58 55.93,29.58 55.93,26.246 51.025,26.246 51.025,26.241 49.148,26.241 49.148,33.369 30.878,40.42  "></polygon><path fill-rule="evenodd" clip-rule="evenodd" fill="#1244A7" d="M96.492,45.091h-1.488v-4.103H71.599l-1.593,1.415v0.461h2.396   v2.226h-2.396v2.738h0.551v0.012h-0.551v0.188h-4.942h-6.39h-5.493h-6.39h-5.493h-6.39h-5.031v-0.188h-0.461v-0.012h0.461v-2.738   h-2.256v-2.226h2.256v-0.823l-1.186-1.053H4.889v4.103H3.507c-0.518,0-0.938,0.42-0.938,0.938c0,0.518,0.421,0.938,0.938,0.938   h1.382v2.75v22.266h24.527v1.677h5.492v-1.677h6.39v1.775h5.493v-1.775h6.39v1.775h5.493v-1.775h6.39v1.775h5.493v-1.775h24.447   V49.717v-2.75h1.488c0.518,0,0.939-0.421,0.939-0.938C97.432,45.511,97.01,45.091,96.492,45.091z M93.128,45.091h-2.193v-2.226   h2.193V45.091z M78.457,45.091v-2.226h2.283v2.226H78.457z M82.616,42.865h2.283v2.226h-2.283V42.865z M86.775,42.865h2.283v2.226   h-2.283V42.865z M74.28,42.865h2.3v2.226h-2.3V42.865z M56.866,49.717v22.165h-1.878V49.717H56.866z M44.983,49.717v22.165h-1.877   V49.717H44.983z M19.304,45.091v-2.226h2.281v2.226H19.304z M17.427,45.091h-2.282v-2.226h2.282V45.091z M13.268,45.091h-2.302   v-2.226h2.302V45.091z M25.745,45.091h-2.283v-2.226h2.283V45.091z M9.089,42.865v2.226H6.766v-2.226H9.089z M33.1,49.717v22.066   h-1.876V49.717H33.1z M11.944,63.884h-1.582v3.56H8.485v-5.436h3.459V63.884z M11.944,54.024h-1.582v3.559H8.485v-5.437h3.459   V54.024z M19.954,63.884h-1.582v3.56h-1.877v-5.436h3.459V63.884z M19.954,54.024h-1.582v3.559h-1.877v-5.437h3.459V54.024z    M27.966,63.884h-1.582v3.56h-1.877v-5.436h3.459V63.884z M27.966,54.024h-1.582v3.559h-1.877v-5.437h3.459V54.024z M39.69,63.803   h-1.581v3.559h-1.877v-5.436h3.458V63.803z M39.69,54.024h-1.581v3.559h-1.877v-5.437h3.458V54.024z M51.603,63.803h-1.581v3.559   h-1.877v-5.436h3.458V63.803z M51.603,54.024h-1.581v3.559h-1.877v-5.437h3.458V54.024z M63.852,63.803H62.27v3.559h-1.877v-5.436   h3.459V63.803z M63.852,54.024H62.27v3.559h-1.877v-5.437h3.459V54.024z M75.396,63.884h-1.582v3.56h-1.877v-5.436h3.459V63.884z    M75.396,54.024h-1.582v3.559h-1.877v-5.437h3.459V54.024z M83.407,63.884h-1.583v3.56h-1.876v-5.436h3.459V63.884z M83.407,54.024   h-1.583v3.559h-1.876v-5.437h3.459V54.024z M91.418,63.884h-1.582v3.56h-1.877v-5.436h3.459V63.884z M91.418,54.024h-1.582v3.559   h-1.877v-5.437h3.459V54.024z M68.748,71.882h-1.876V49.717h1.876V71.882z"></path><polygon fill-rule="evenodd" clip-rule="evenodd" fill="#1244A7" points="31.755,46.151 68.129,46.151 68.129,45.091    68.129,42.969 31.755,42.969 31.755,45.091  "></polygon></g></svg>